<?xml version="1.0" encoding="iso-8859-1"?>
<!-- Generator: Adobe Illustrator 19.0.0, SVG Export Plug-In . SVG Version: 6.00 Build 0)  -->
<svg version="1.1" id="Capa_1" xmlns="http://www.w3.org/2000/svg" xmlns:xlink="http://www.w3.org/1999/xlink" x="0px" y="0px"
	 viewBox="0 0 330 330" style="enable-background:new 0 0 330 330;" xml:space="preserve">
<g id="XMLID_873_">
	<path id="XMLID_876_" style="fill:#FFDA44;" d="M195,90c8.164,0,13.946,0,15,0c24.853,0,45-20.147,45-45S234.853,0,210,0
		s-45,20.147-45,45c0-24.853-20.147-45-45-45S75,20.147,75,45s20.147,45,45,45c1.054,0,6.836,0,15,0C151.681,90,178.319,90,195,90z
		 M195,45c0-8.271,6.729-15,15-15s15,6.729,15,15s-6.729,15-15,15h-15V45z M105,45c0-8.271,6.729-15,15-15s15,6.729,15,15v15h-15
		C111.729,60,105,53.271,105,45z"/>
	<rect id="XMLID_880_" x="45" y="170" style="fill:#CCF8F3;" width="90" height="160"/>
	<path id="XMLID_881_" style="fill:#EA348B;" d="M135,150V90c-8.164,0-13.946,0-15,0H35v80h10h90V150z"/>
	<rect id="XMLID_882_" x="195" y="170" style="fill:#00D7DF;" width="90" height="160"/>
	<path id="XMLID_883_" style="fill:#B02768;" d="M210,90c-1.054,0-6.836,0-15,0v60v20h90h10V90H210z"/>
	<rect id="XMLID_884_" x="135" y="170" style="fill:#FFDA44;" width="60" height="160"/>
	<polygon id="XMLID_885_" style="fill:#FF9811;" points="135,150 135,170 195,170 195,150 165,120 	"/>
	<path id="XMLID_886_" style="fill:#FFF0B4;" d="M135,150l30-30l30,30V90c-16.681,0-43.319,0-60,0V150z"/>
</g>
<g>
</g>
<g>
</g>
<g>
</g>
<g>
</g>
<g>
</g>
<g>
</g>
<g>
</g>
<g>
</g>
<g>
</g>
<g>
</g>
<g>
</g>
<g>
</g>
<g>
</g>
<g>
</g>
<g>
</g>
</svg>
