<svg height="511pt" viewBox="0 -70 511.99895 511" width="511pt" xmlns="http://www.w3.org/2000/svg"><path d="m169.941406 210.007812c-56.710937 0-102.847656-46.992187-102.847656-104.753906 0-57.761718 46.136719-104.753906 102.847656-104.753906 56.710938 0 102.847656 46.992188 102.847656 104.753906 0 57.761719-46.136718 104.753906-102.847656 104.753906zm0 0" fill="#fed317"/><path d="m377.058594 177.253906c-45.769532 0-83.003906-37.894531-83.003906-84.480468 0-46.578126 37.234374-84.476563 83.003906-84.476563 45.765625 0 83 37.894531 83 84.476563.003906 46.582031-37.234375 84.480468-83 84.480468zm0 0" fill="#fe9e0f"/><path d="m511.46875 261.550781c-11.757812-66.230469-68.285156-114.296875-134.410156-114.296875-25.800782 0-50.925782 7.371094-72.664063 21.316406-21.085937 13.523438-38.15625 32.636719-49.363281 55.277344l56.773438 77.644532h166.449218c9.945313 0 19.34375-4.40625 25.78125-12.085938 6.492188-7.746094 9.203125-17.902344 7.433594-27.855469zm0 0" fill="#0083db"/><path d="m300.671875 370.5h-261.460937c-11.550782 0-22.464844-5.121094-29.945313-14.046875-7.554687-9.011719-10.707031-20.824219-8.648437-32.410156 14.816406-83.460938 86.027343-144.035157 169.324218-144.035157s154.507813 60.574219 169.328125 144.035157c2.054688 11.585937-1.097656 23.398437-8.652343 32.414062-7.480469 8.921875-18.394532 14.042969-29.945313 14.042969zm0 0" fill="#3caafd"/></svg>