<?xml version="1.0" encoding="UTF-8" standalone="no"?>
<svg
   width="64pt"
   height="64pt"
   viewBox="0 0 22.577778 22.577778"
   version="1.1"
   id="svg831"
   inkscape:version="1.1.2 (1:1.1+202202050950+0a00cf5339)"
   sodipodi:docname="25 - Store Front.svg"
   inkscape:export-filename="/media/taufikramadhan/Data/Tr Design Studio/Project Design/TR Creative Design/Icon Design/Project Hiring/Icon Icons/019 - Commerce And Shopping/5 - Send/25 - Store Front.png"
   inkscape:export-xdpi="576"
   inkscape:export-ydpi="576"
   xmlns:inkscape="http://www.inkscape.org/namespaces/inkscape"
   xmlns:sodipodi="http://sodipodi.sourceforge.net/DTD/sodipodi-0.dtd"
   xmlns="http://www.w3.org/2000/svg"
   xmlns:svg="http://www.w3.org/2000/svg"
   xmlns:rdf="http://www.w3.org/1999/02/22-rdf-syntax-ns#"
   xmlns:cc="http://creativecommons.org/ns#"
   xmlns:dc="http://purl.org/dc/elements/1.1/">
  <defs
     id="defs825">
    <pattern
       id="EMFhbasepattern"
       patternUnits="userSpaceOnUse"
       width="6"
       height="6"
       x="0"
       y="0" />
    <pattern
       id="EMFhbasepattern-9"
       patternUnits="userSpaceOnUse"
       width="6"
       height="6"
       x="0"
       y="0" />
    <pattern
       id="EMFhbasepattern-0"
       patternUnits="userSpaceOnUse"
       width="6"
       height="6"
       x="0"
       y="0" />
    <pattern
       id="EMFhbasepattern-7"
       patternUnits="userSpaceOnUse"
       width="6"
       height="6"
       x="0"
       y="0" />
    <pattern
       id="EMFhbasepattern-2"
       patternUnits="userSpaceOnUse"
       width="6"
       height="6"
       x="0"
       y="0" />
    <pattern
       id="EMFhbasepattern-98"
       patternUnits="userSpaceOnUse"
       width="6"
       height="6"
       x="0"
       y="0" />
    <pattern
       id="EMFhbasepattern-6"
       patternUnits="userSpaceOnUse"
       width="6"
       height="6"
       x="0"
       y="0" />
    <pattern
       id="EMFhbasepattern-01"
       patternUnits="userSpaceOnUse"
       width="6"
       height="6"
       x="0"
       y="0" />
    <pattern
       id="EMFhbasepattern-07"
       patternUnits="userSpaceOnUse"
       width="6"
       height="6"
       x="0"
       y="0" />
    <pattern
       id="EMFhbasepattern-8"
       patternUnits="userSpaceOnUse"
       width="6"
       height="6"
       x="0"
       y="0" />
    <pattern
       id="EMFhbasepattern-4"
       patternUnits="userSpaceOnUse"
       width="6"
       height="6"
       x="0"
       y="0" />
    <pattern
       id="EMFhbasepattern-40"
       patternUnits="userSpaceOnUse"
       width="6"
       height="6"
       x="0"
       y="0" />
    <pattern
       id="EMFhbasepattern-08"
       patternUnits="userSpaceOnUse"
       width="6"
       height="6"
       x="0"
       y="0" />
    <pattern
       id="EMFhbasepattern-04"
       patternUnits="userSpaceOnUse"
       width="6"
       height="6"
       x="0"
       y="0" />
    <pattern
       id="EMFhbasepattern-014"
       patternUnits="userSpaceOnUse"
       width="6"
       height="6"
       x="0"
       y="0" />
    <pattern
       id="EMFhbasepattern-27"
       patternUnits="userSpaceOnUse"
       width="6"
       height="6"
       x="0"
       y="0" />
    <pattern
       id="EMFhbasepattern-09"
       patternUnits="userSpaceOnUse"
       width="6"
       height="6"
       x="0"
       y="0" />
    <pattern
       id="EMFhbasepattern-5"
       patternUnits="userSpaceOnUse"
       width="6"
       height="6"
       x="0"
       y="0" />
    <pattern
       id="EMFhbasepattern-018"
       patternUnits="userSpaceOnUse"
       width="6"
       height="6"
       x="0"
       y="0" />
  </defs>
  <sodipodi:namedview
     id="base"
     pagecolor="#ffffff"
     bordercolor="#666666"
     borderopacity="1.0"
     inkscape:pageopacity="0.0"
     inkscape:pageshadow="2"
     inkscape:zoom="4.4249417"
     inkscape:cx="25.876047"
     inkscape:cy="58.983828"
     inkscape:document-units="pt"
     inkscape:current-layer="layer1"
     showgrid="false"
     units="pt"
     inkscape:window-width="1366"
     inkscape:window-height="705"
     inkscape:window-x="0"
     inkscape:window-y="31"
     inkscape:window-maximized="1"
     inkscape:pagecheckerboard="true"
     inkscape:showpageshadow="false"
     inkscape:object-paths="true"
     inkscape:snap-intersection-paths="true"
     inkscape:snap-smooth-nodes="true"
     inkscape:snap-midpoints="true"
     showguides="true"
     inkscape:snap-bbox="true"
     inkscape:bbox-nodes="true"
     inkscape:snap-nodes="false"
     inkscape:snap-global="true"
     inkscape:document-rotation="0">
    <inkscape:grid
       type="xygrid"
       id="grid1378" />
    <sodipodi:guide
       position="0.97013831,21.607643"
       orientation="78.000048,0"
       id="guide1380"
       inkscape:locked="false" />
    <sodipodi:guide
       position="0.97013831,0.97013129"
       orientation="0,78.000005"
       id="guide1382"
       inkscape:locked="false" />
    <sodipodi:guide
       position="21.607639,0.97013129"
       orientation="-78.000048,0"
       id="guide1384"
       inkscape:locked="false" />
    <sodipodi:guide
       position="21.607639,21.607643"
       orientation="0,-78.000005"
       id="guide1386"
       inkscape:locked="false" />
  </sodipodi:namedview>
  <metadata
     id="metadata828">
    <rdf:RDF>
      <cc:Work
         rdf:about="">
        <dc:format>image/svg+xml</dc:format>
        <dc:type
           rdf:resource="http://purl.org/dc/dcmitype/StillImage" />
      </cc:Work>
    </rdf:RDF>
  </metadata>
  <g
     inkscape:label="Icon"
     inkscape:groupmode="layer"
     id="layer1"
     transform="translate(0,-274.42223)">
    <g
       id="g933412"
       style="display:inline;stroke-width:0.795824"
       transform="matrix(1.2565587,0,0,1.2565587,77.307305,-191.83392)">
      <path
         style="color:#000000;fill:#d0e2ee;stroke-width:0.795824;stroke-linecap:round;stroke-linejoin:round;stroke-miterlimit:1.5;-inkscape-stroke:none"
         d="m -57.125,371.83008 a 0.26460996,0.26460996 0 0 0 -0.265625,0.26562 v 0.8125 h -0.273437 a 0.26460996,0.26460996 0 0 0 -0.265625,0.26367 V 374.25 a 0.26460996,0.26460996 0 0 0 0.265625,0.26367 h 10.236328 a 0.26460996,0.26460996 0 0 0 0.263672,-0.26367 v -1.07813 a 0.26460996,0.26460996 0 0 0 -0.263672,-0.26367 h -0.273438 v -0.8125 a 0.26460996,0.26460996 0 0 0 -0.265625,-0.26562 z"
         id="path159445" />
      <path
         id="path908010"
         style="color:#000000;fill:#a8c2e1;fill-opacity:1;stroke-width:0.795824;stroke-linecap:round;stroke-linejoin:round;stroke-miterlimit:1.5;-inkscape-stroke:none"
         d="m -57.125197,371.83005 a 0.26460996,0.26460996 0 0 0 -0.265618,0.26562 v 0.26355 h 8.895065 a 0.26460996,0.26460996 0 0 1 0.265618,0.26562 v 0.81235 h 0.273367 a 0.26460996,0.26460996 0 0 1 0.263552,0.26407 v 0.81235 h 0.265615 a 0.26460996,0.26460996 0 0 0 0.263551,-0.26355 v -1.07797 a 0.26460996,0.26460996 0 0 0 -0.263551,-0.26407 h -0.273368 v -0.81235 a 0.26460996,0.26460996 0 0 0 -0.265618,-0.26562 z m -0.794784,1.27228 a 0.26460996,0.26460996 0 0 0 -0.0098,0.0698 v 0.2651 h 0.0098 z" />
      <path
         style="color:#000000;fill:#d0e2ee;stroke-width:0.795824;stroke-linecap:round;stroke-linejoin:round;stroke-miterlimit:1.5;-inkscape-stroke:none"
         d="m -46.066406,380.31641 a 0.2645835,0.2645835 0 0 0 -0.263672,0.26367 0.2645835,0.2645835 0 0 0 0.263672,0.26562 h 1.464844 a 0.2645835,0.2645835 0 0 0 0.263671,-0.26562 0.2645835,0.2645835 0 0 0 -0.263671,-0.26367 z"
         id="path159451" />
      <path
         style="color:#000000;fill:#3a4d5c;stroke-width:0.795824;stroke-linecap:round;stroke-linejoin:round;stroke-miterlimit:1.5;-inkscape-stroke:none"
         d="m -45.394531,380.31641 v 1.05859 c 5.01e-4,0.14541 0.118258,0.26317 0.263672,0.26367 0.146176,5.8e-4 0.265121,-0.11749 0.265625,-0.26367 v -1.05859 z"
         id="path420470"
         sodipodi:nodetypes="cccccc" />
      <path
         style="color:#000000;fill:#d0e2ee;stroke-width:0.795824;stroke-linecap:round;stroke-linejoin:round;stroke-miterlimit:1.5;-inkscape-stroke:none"
         d="m -60.476562,380.31641 a 0.2645835,0.2645835 0 0 0 -0.263672,0.26367 0.2645835,0.2645835 0 0 0 0.263672,0.26562 h 1.464843 a 0.2645835,0.2645835 0 0 0 0.263672,-0.26562 0.2645835,0.2645835 0 0 0 -0.263672,-0.26367 z"
         id="path159461" />
      <path
         style="color:#000000;fill:#4895ef;stroke-width:0.795824;stroke-linecap:round;stroke-linejoin:round;stroke-miterlimit:1.5;-inkscape-stroke:none"
         d="m -59.011719,378.31445 a 0.26460996,0.26460996 0 0 0 -0.263672,0.26563 v 8.33203 a 0.26460996,0.26460996 0 0 0 0.263672,0.26367 h 12.931641 a 0.26460996,0.26460996 0 0 0 0.263672,-0.26367 v -8.33203 a 0.26460996,0.26460996 0 0 0 -0.263672,-0.26563 z"
         id="path159467" />
      <path
         id="path843173"
         style="color:#000000;fill:#4377d1;fill-opacity:1;stroke-width:3.00784;stroke-linecap:round;stroke-linejoin:round;stroke-miterlimit:1.5;-inkscape-stroke:none"
         d="m -223.03711,371.33008 c -0.55226,0.002 -0.99819,0.45164 -0.99609,1.0039 v 6.93164 c 0.22546,0.0421 0.45667,0.0664 0.69336,0.0664 1.1238,0 2.05438,-0.54444 2.74609,-1.32812 0.69171,0.78379 1.62218,1.32812 2.74609,1.32812 1.0774,0 2.06092,-0.45651 2.75,-1.18555 0.68913,0.72962 1.67212,1.18555 2.75,1.18555 1.12042,0 2.0545,-0.54266 2.7461,-1.32226 0.69163,0.78085 1.63245,1.32226 2.7539,1.32226 1.07789,0 2.06088,-0.45593 2.75,-1.18555 0.68908,0.72904 1.67261,1.18555 2.75,1.18555 1.12042,0 2.0545,-0.54266 2.7461,-1.32226 0.69163,0.78085 1.63049,1.32226 2.75195,1.32226 1.07739,0 2.06092,-0.45651 2.75,-1.18555 0.68912,0.72954 1.67218,1.18555 2.75,1.18555 1.12391,0 2.05439,-0.54433 2.74609,-1.32812 0.69171,0.78368 1.62229,1.32812 2.7461,1.32812 1.07739,0 2.06092,-0.45651 2.75,-1.18555 0.68908,0.72904 1.67261,1.18555 2.75,1.18555 1.12146,0 2.06227,-0.54141 2.7539,-1.32226 0.40116,0.4522 0.88609,0.81963 1.43946,1.05273 v 24.76367 c -0.002,0.54921 -0.44688,0.9939 -0.9961,0.9961 h 2 c 0.54922,-0.002 0.9939,-0.44689 0.9961,-0.9961 0,-9.83073 0,-19.66146 0,-29.49219 v -2 c 0.002,-0.55226 -0.44384,-1.00169 -0.9961,-1.0039 z"
         transform="matrix(0.26458334,0,0,0.26458334,0,280.06666)"
         sodipodi:nodetypes="cccscscscscscscscscscccccccccc" />
      <path
         style="color:#000000;fill:#70c2ef;stroke-width:0.795824;stroke-linecap:round;stroke-linejoin:round;stroke-miterlimit:1.5;-inkscape-stroke:none"
         d="m -53.085937,380.45117 a 0.26460996,0.26460996 0 0 0 -0.263672,0.26367 v 5.11914 a 0.26460996,0.26460996 0 0 0 0.263672,0.26368 h 5.927734 a 0.26460996,0.26460996 0 0 0 0.263672,-0.26368 v -5.11914 a 0.26460996,0.26460996 0 0 0 -0.263672,-0.26367 z"
         id="path159473" />
      <path
         id="path913154"
         style="color:#000000;fill:#5aabdd;fill-opacity:1;stroke-width:3.00784;stroke-linecap:round;stroke-linejoin:round;stroke-miterlimit:1.5;-inkscape-stroke:none"
         d="m -177.23828,382.35156 c 5e-5,-0.5221 -0.42321,-0.94536 -0.94531,-0.94531 h -5.6543 -0.99805 -3.60156 -0.99609 -5.60352 -5.60351 c -0.54922,0.002 -0.9939,0.44687 -0.9961,0.99609 v 1.72071 c 0,2.04294 1.73922,3.67578 3.80274,3.67578 1.09525,0 2.09814,-0.46 2.79882,-1.19727 0.69873,0.73727 1.70163,1.19727 2.79688,1.19727 1.09624,0 2.10001,-0.46081 2.80078,-1.19922 0.70077,0.73841 1.70454,1.19922 2.80078,1.19922 1.09625,0 2.10196,-0.46081 2.80274,-1.19922 0.70075,0.73841 1.70453,1.19922 2.80078,1.19922 0.0999,0 0.19901,-0.004 0.2972,-0.0114 0.85807,-0.0658 1.49772,0.27242 1.49772,1.13896 V 399.75 c -0.001,0.55075 -0.44731,0.99691 -0.99805,0.99805 h 2 c 0.55075,-10e-4 0.99693,-0.4473 0.99805,-0.99805 z"
         transform="matrix(0.26458334,0,0,0.26458334,0,280.06666)"
         sodipodi:nodetypes="cccccccccsscscscscccccc" />
      <path
         style="color:#000000;fill:#3a4d5c;stroke-width:0.795824;stroke-linecap:round;stroke-linejoin:round;stroke-miterlimit:1.5;-inkscape-stroke:none"
         d="M -58.203125,373.98437 A 0.26460996,0.26460996 0 0 0 -58.46875,374.25 v 1.07812 a 0.26460996,0.26460996 0 0 0 0.265625,0.26368 h 11.314453 A 0.26460996,0.26460996 0 0 0 -46.625,375.32812 V 374.25 a 0.26460996,0.26460996 0 0 0 -0.263672,-0.26563 z"
         id="path159479" />
      <path
         id="path903789"
         style="color:#000000;fill:#143441;fill-opacity:1;stroke-width:0.795824;stroke-linecap:round;stroke-linejoin:round;stroke-miterlimit:1.5;-inkscape-stroke:none"
         d="m -58.203167,373.98445 a 0.26460996,0.26460996 0 0 0 -0.265618,0.26561 v 0.26355 h 11.051006 a 0.26460996,0.26460996 0 0 1 0.263551,0.26562 v 0.81235 h 0.265615 a 0.26460996,0.26460996 0 0 0 0.263552,-0.26355 v -1.07797 a 0.26460996,0.26460996 0 0 0 -0.263552,-0.26561 z" />
      <path
         style="color:#000000;fill:#d0e2ee;stroke-width:0.795824;stroke-linecap:round;stroke-linejoin:round;stroke-miterlimit:1.5;-inkscape-stroke:none"
         d="m -54.162109,387.17578 c 0.145414,-5e-4 0.263171,-0.11826 0.263672,-0.26367 v -4.44531 c 0,-1.12302 -0.973824,-2.01563 -2.150391,-2.01563 -1.176566,0 -2.150391,0.89261 -2.150391,2.01563 v 4.44531 c 5.04e-4,0.14618 0.119449,0.26425 0.265625,0.26367 z"
         id="path776735" />
      <path
         style="color:#000000;fill:#70c2ef;stroke-width:0.795824;stroke-linecap:round;stroke-linejoin:round;stroke-miterlimit:1.5;-inkscape-stroke:none"
         d="m -56.210937,381.79687 c -0.476234,0 -0.910157,0.33554 -0.910157,0.80469 v 1.07617 a 0.26460996,0.26460996 0 0 0 0.263672,0.26563 h 1.617188 a 0.26460996,0.26460996 0 0 0 0.263672,-0.26563 v -1.07617 c 0,-0.46915 -0.433924,-0.80468 -0.910157,-0.80469 z"
         id="path159491" />
      <path
         style="color:#000000;fill:#70c2ef;stroke-width:0.795824;stroke-linecap:round;stroke-linejoin:round;stroke-miterlimit:1.5;-inkscape-stroke:none"
         d="m -56.826172,384.52148 a 0.26460996,0.26460996 0 0 0 -0.265625,0.26368 v 1.07812 a 0.26460996,0.26460996 0 0 0 0.265625,0.26563 h 1.615235 a 0.26460996,0.26460996 0 0 0 0.265625,-0.26563 v -1.07812 a 0.26460996,0.26460996 0 0 0 -0.265625,-0.26368 z"
         id="path159497" />
      <path
         style="color:#000000;fill:#d0e2ee;stroke-width:0.421124;stroke-linecap:round;stroke-linejoin:round;stroke-miterlimit:1.5;-inkscape-stroke:none"
         d="m -53.085034,386.91144 v -1.07758 h 5.926662 v 1.07758 z"
         id="path159501" />
      <path
         style="color:#000000;fill:#d0e2ee;stroke-width:0.795824;stroke-linecap:round;stroke-linejoin:round;stroke-miterlimit:1.5;-inkscape-stroke:none"
         d="m -52.820312,386.09766 h 5.396484 v 0.54882 h -5.396484 z"
         id="path774141" />
      <path
         style="color:#000000;fill:#d0e2ee;stroke-width:0.795824;stroke-linecap:round;stroke-linejoin:round;stroke-miterlimit:1.5;-inkscape-stroke:none"
         d="m -53.349609,385.56836 v 1.34375 c 5.16e-4,0.14541 0.118264,0.26316 0.263672,0.26367 h 5.927734 c 0.145408,-5.1e-4 0.263156,-0.11826 0.263672,-0.26367 v -1.34375 z"
         id="path159503"
         sodipodi:nodetypes="ccccccc" />
      <path
         id="path408507"
         style="color:#000000;fill:#4377d1;stroke-width:3.00784;stroke-linecap:round;stroke-linejoin:round;stroke-miterlimit:1.5;-inkscape-stroke:none"
         d="m -177.23828,386.13867 -8.83008,8.82813 a 1.0000006,1.0000006 0 0 0 0,1.41797 1.0000006,1.0000006 0 0 0 1.41016,0 l 7.41992,-7.42188 z m -10.22266,5.49024 a 1.0000006,1.0000006 0 0 0 -0.64453,0.28906 l -3.05664,3.04883 a 1.0000006,1.0000006 0 0 0 0,1.41797 1.0000006,1.0000006 0 0 0 1.41797,0 l 3.04883,-3.05665 a 1.0000006,1.0000006 0 0 0 0,-1.41015 1.0000006,1.0000006 0 0 0 -0.76563,-0.28906 z"
         transform="matrix(0.26458334,0,0,0.26458334,0,280.06666)" />
      <path
         id="path410407"
         style="color:#000000;fill:#4377d1;stroke-width:3.00784;stroke-linecap:round;stroke-linejoin:round;stroke-miterlimit:1.5;-inkscape-stroke:none"
         d="m -195.23633,387.54883 a 1.0000006,1.0000006 0 0 0 -0.70898,0.29492 l -5.69141,5.69141 v 2.83593 l 7.10938,-7.10937 a 1.0000006,1.0000006 0 0 0 0,-1.41797 1.0000006,1.0000006 0 0 0 -0.70899,-0.29492 z"
         transform="matrix(0.26458334,0,0,0.26458334,0,280.06666)" />
      <path
         id="path413101"
         style="color:#000000;fill:#a8c2e1;fill-opacity:1;stroke-width:3.00784;stroke-linecap:round;stroke-linejoin:round;stroke-miterlimit:1.5;-inkscape-stroke:none"
         d="m -210.82031,350.89648 a 1.0000006,1.0000006 0 0 0 -0.9961,0.99805 1.0000006,1.0000006 0 0 0 0.9961,1.00391 h 32.5625 v -1.00391 a 1.0001006,1.0001006 0 0 0 -0.9961,-0.99805 h -1.0332 z"
         transform="matrix(0.26458334,0,0,0.26458334,0,280.06666)" />
      <path
         style="color:#000000;fill:#3a4d5c;stroke-width:0.795824;stroke-linecap:round;stroke-linejoin:round;stroke-miterlimit:1.5;-inkscape-stroke:none"
         d="m -60.212891,380.31641 v 1.05859 c 5.04e-4,0.14618 0.119449,0.26425 0.265625,0.26367 0.145414,-5e-4 0.263171,-0.11826 0.263672,-0.26367 v -1.05859 z"
         id="path420590"
         sodipodi:nodetypes="cccccc" />
      <path
         style="color:#000000;fill:#dc1c4b;stroke-width:0.795824;stroke-linecap:round;stroke-linejoin:round;stroke-miterlimit:1.5;-inkscape-stroke:none"
         d="m -48.828125,375.0625 a 0.26460996,0.26460996 0 0 0 -0.257812,0.32617 l 0.638671,2.66406 v 0.87696 c 0,0.53782 0.451164,0.97265 0.992188,0.97265 0.296719,0 0.545522,-0.14301 0.728516,-0.34961 0.182985,0.20627 0.430119,0.34961 0.726562,0.34961 0.541025,0 0.992188,-0.43483 0.992188,-0.97265 v -0.90821 a 0.26460996,0.26460996 0 0 0 -0.02734,-0.11914 l -1.347656,-2.69336 a 0.26460996,0.26460996 0 0 0 -0.236329,-0.14648 z"
         id="path159533" />
      <path
         id="path894650"
         style="color:#000000;fill:#b01d47;fill-opacity:1;stroke-width:3.00784;stroke-linecap:round;stroke-linejoin:round;stroke-miterlimit:1.5;-inkscape-stroke:none"
         d="m -183.10742,370.22266 v 2 h 2.67114 a 2.8288641,2.8288641 45 0 1 2.82886,2.82886 v 0.60473 c 0,0.48688 -0.0985,0.95003 -0.27539,1.375 1.32877,-0.56341 2.27539,-1.86024 2.27539,-3.375 v -1.43359 h 0.74179 c 1.52332,0 2.75821,1.23489 2.75821,2.75821 v 0.67538 c 0,0.48688 -0.0985,0.95003 -0.27539,1.375 1.32877,-0.56341 2.27539,-1.86024 2.27539,-3.375 v -3.43359 z"
         transform="matrix(0.26458334,0,0,0.26458334,0,280.06666)"
         sodipodi:nodetypes="cccscsccscscc" />
      <path
         id="path853951"
         style="color:#000000;fill:#b01d47;fill-opacity:1;stroke-width:0.795824;stroke-linecap:round;stroke-linejoin:round;stroke-miterlimit:1.5;-inkscape-stroke:none"
         d="m -45.00759,378.43172 v -0.41031 c 2.51e-4,-0.0412 -0.0091,-0.0819 -0.02739,-0.11886 l -1.347721,-2.69337 c -0.04468,-0.0898 -0.136339,-0.14668 -0.236678,-0.14677 h -2.208651 c -0.171201,-3.2e-4 -0.297634,0.15956 -0.257863,0.32608 l 0.04857,0.20309 h 1.888773 c 0.100337,9e-5 0.191991,0.0569 0.236678,0.14676 l 1.347721,2.69338 z"
         sodipodi:nodetypes="cccccccccccc" />
      <path
         style="color:#000000;fill:#dc1c4b;stroke-width:0.795824;stroke-linecap:round;stroke-linejoin:round;stroke-miterlimit:1.5;-inkscape-stroke:none"
         d="m -53.785156,375.0625 a 0.26460996,0.26460996 0 0 0 -0.263672,0.24414 L -54.265625,378 a 0.26460996,0.26460996 0 0 0 0,0.0215 v 0.90821 c 0,0.53782 0.451163,0.97265 0.992188,0.97265 0.296443,0 0.543577,-0.14334 0.726562,-0.34961 0.182994,0.2066 0.431796,0.34961 0.728516,0.34961 0.541024,0 0.992187,-0.43483 0.992187,-0.97265 v -0.90821 a 0.26460996,0.26460996 0 0 0 -0.002,-0.0215 l -0.214844,-2.69336 a 0.26460996,0.26460996 0 0 0 -0.263672,-0.24414 z"
         id="path159539" />
      <path
         id="path882164"
         style="color:#000000;fill:#b01d47;fill-opacity:1;stroke-width:0.795824;stroke-linecap:round;stroke-linejoin:round;stroke-miterlimit:1.5;-inkscape-stroke:none"
         d="m -50.826317,378.52939 v -0.50797 c -4.15e-4,-0.007 -0.0011,-0.0142 -0.0021,-0.0212 l -0.214458,-2.69337 c -0.01054,-0.1378 -0.125348,-0.24428 -0.263549,-0.24443 l -2.478924,-10e-6 c -0.138202,1.5e-4 -0.253011,0.10663 -0.263551,0.24443 l -0.02273,0.28474 h 1.706353 c 0.1384,-1.2e-4 0.253513,0.10643 0.264068,0.24443 l 0.214458,2.69338 z"
         sodipodi:nodetypes="cccccccccccc" />
      <path
         id="path896915"
         style="color:#000000;fill:#b01d47;fill-opacity:1;stroke-width:3.00784;stroke-linecap:round;stroke-linejoin:round;stroke-miterlimit:1.5;-inkscape-stroke:none"
         d="m -205.18164,370.22266 v 2 h 2.62067 a 2.879329,2.879329 45 0 1 2.87933,2.87933 v 0.55426 c 0,0.48688 -0.0985,0.95003 -0.27539,1.375 1.32877,-0.56341 2.27539,-1.86024 2.27539,-3.375 v -1.43359 h 0.7027 a 2.879329,2.879329 45 0 1 2.87933,2.87933 v 0.55426 c 0,0.48688 -0.0985,0.95003 -0.27539,1.375 1.32877,-0.56341 2.27539,-1.86024 2.27539,-3.375 v -3.43359 z"
         transform="matrix(0.26458334,0,0,0.26458334,0,280.06666)"
         sodipodi:nodetypes="cccscsccscscc" />
      <path
         id="path870831"
         style="color:#000000;fill:#b01d47;fill-opacity:1;stroke-width:0.795824;stroke-linecap:round;stroke-linejoin:round;stroke-miterlimit:1.5;-inkscape-stroke:none"
         d="m -53.785348,375.5916 h 2.478918 v -0.52918 l -2.478918,-10e-6 z"
         sodipodi:nodetypes="ccccc" />
      <path
         style="color:#000000;fill:#d0e2ee;stroke-width:0.795824;stroke-linecap:round;stroke-linejoin:round;stroke-miterlimit:1.5;-inkscape-stroke:none"
         d="m -51.59313,375.0625 0.237661,2.96875 v 0.89844 c 0,0.53782 0.451163,0.97265 0.992188,0.97265 0.297368,0 0.543548,-0.14418 0.726562,-0.35156 0.183014,0.20735 0.429221,0.35156 0.726563,0.35156 0.541025,0 0.992187,-0.43483 0.992187,-0.97265 v -0.90821 c 5.2e-4,-0.021 -0.0015,-0.042 -0.0059,-0.0625 l -0.697341,-2.89648 z"
         id="path159545"
         sodipodi:nodetypes="ccsscsscccc" />
      <path
         style="color:#000000;fill:#dc1c4b;stroke-width:0.795824;stroke-linecap:round;stroke-linejoin:round;stroke-miterlimit:1.5;-inkscape-stroke:none"
         d="m -58.472656,375.0625 a 0.26460996,0.26460996 0 0 0 -0.236328,0.14648 l -1.347657,2.69336 a 0.26460996,0.26460996 0 0 0 -0.02734,0.11914 v 0.90821 c 0,0.53782 0.451163,0.97265 0.992187,0.97265 0.297341,0 0.543549,-0.14421 0.726563,-0.35156 0.183014,0.20738 0.429194,0.35156 0.726562,0.35156 0.541024,0 0.992188,-0.43483 0.992188,-0.97265 v -0.87696 l 0.640625,-2.66406 a 0.26460996,0.26460996 0 0 0 -0.257813,-0.32617 z"
         id="path159551" />
      <path
         id="path886670"
         style="color:#000000;fill:#b01d47;fill-opacity:1;stroke-width:3.00784;stroke-linecap:round;stroke-linejoin:round;stroke-miterlimit:1.5;-inkscape-stroke:none"
         d="m -227.09766,370.22266 v 2 h 2.6314 a 2.8686008,2.8686008 45 0 1 2.8686,2.8686 v 0.56499 c 0,0.48688 -0.0985,0.95003 -0.27539,1.375 1.32877,-0.56341 2.27539,-1.86024 2.27539,-3.375 v -1.43359 h 0.6314 a 2.8686008,2.8686008 45 0 1 2.8686,2.8686 v 0.56499 c 0,0.48688 -0.0985,0.95003 -0.27539,1.375 1.32877,-0.56341 2.27539,-1.86024 2.27539,-3.375 v -3.43359 z"
         transform="matrix(0.26458334,0,0,0.26458334,0,280.06666)"
         sodipodi:nodetypes="cccscsccscscc" />
      <path
         id="path864857"
         style="color:#000000;fill:#b01d47;fill-opacity:1;stroke-width:0.795824;stroke-linecap:round;stroke-linejoin:round;stroke-miterlimit:1.5;-inkscape-stroke:none"
         d="m -56.646674,378.55057 v -0.49766 l 0.640789,-2.66444 c 0.03977,-0.16652 -0.08666,-0.3264 -0.257866,-0.32608 l -2.208651,2e-5 c -0.100339,9e-5 -0.191994,0.0569 -0.236678,0.14677 l -0.191201,0.3824 h 1.578197 c 0.171203,-3.2e-4 0.297637,0.15956 0.257866,0.32608 l -0.640789,2.63291 z"
         sodipodi:nodetypes="ccccccccccc" />
      <path
         style="color:#000000;fill:#d0e2ee;stroke-width:0.795824;stroke-linecap:round;stroke-linejoin:round;stroke-miterlimit:1.5;-inkscape-stroke:none"
         d="m -56.47272,375.0625 -0.695249,2.89648 c -0.0051,0.0204 -0.0077,0.0414 -0.0078,0.0625 v 0.90821 c 0,0.53782 0.451163,0.97265 0.992187,0.97265 0.296444,0 0.543578,-0.14334 0.726563,-0.34961 0.182994,0.2066 0.431796,0.34961 0.728515,0.34961 0.541024,0 0.992188,-0.43483 0.992188,-0.97265 v -0.89844 l 0.237673,-2.96875 z"
         id="path159557"
         sodipodi:nodetypes="cccsscssccc" />
      <path
         id="path819789"
         style="color:#000000;fill:#a8c2e1;fill-opacity:1;stroke-width:0.795824;stroke-linecap:round;stroke-linejoin:round;stroke-miterlimit:1.5;-inkscape-stroke:none"
         d="m -56.048777,380.45123 c -0.753472,0 -1.423492,0.36627 -1.808159,0.92449 0.358825,-0.24894 0.802367,-0.39532 1.278993,-0.39532 1.176567,0 2.150255,0.89236 2.150255,2.01538 v 4.18011 h 0.265618 c 0.145413,-5.3e-4 0.263049,-0.11814 0.263549,-0.26355 v -4.44573 c 0,-1.12302 -0.973688,-2.01538 -2.150256,-2.01538 z" />
      <path
         style="color:#000000;fill:#3a4d5c;stroke-width:0.795824;stroke-linecap:round;stroke-linejoin:round;stroke-miterlimit:1.5;-inkscape-stroke:none"
         d="m -59.28125,386.64648 a 0.26460996,0.26460996 0 0 0 -0.185547,0.0781 l -0.539062,0.53516 a 0.26460996,0.26460996 0 0 0 -0.07813,0.1875 v 0.54101 a 0.26460996,0.26460996 0 0 0 0.263672,0.26563 h 14.546875 a 0.26460996,0.26460996 0 0 0 0.265625,-0.26563 v -0.53711 a 0.26460996,0.26460996 0 0 0 -0.07813,-0.1875 L -45.625,386.72461 a 0.26460996,0.26460996 0 0 0 -0.185547,-0.0781 z"
         id="path159563" />
      <path
         style="color:#000000;fill:#d0e2ee;stroke-width:0.795824;stroke-linecap:round;stroke-linejoin:round;stroke-miterlimit:1.5;-inkscape-stroke:none"
         d="m -50.121094,380.45117 a 0.26460996,0.26460996 0 0 0 -0.265625,0.26367 v 0.45508 c 0,0.54053 0.459888,0.97266 1.00586,0.97266 0.545973,0 1.005859,-0.43213 1.005859,-0.97266 v -0.45508 a 0.26460996,0.26460996 0 0 0 -0.265625,-0.26367 z"
         id="path159569" />
      <path
         style="color:#000000;fill:#dc1c4b;stroke-width:0.795824;stroke-linecap:round;stroke-linejoin:round;stroke-miterlimit:1.5;-inkscape-stroke:none"
         d="m -48.904297,380.45117 v 0.71875 c 0,0.54053 0.459888,0.97266 1.00586,0.97266 0.545973,0 1.003906,-0.43213 1.003906,-0.97266 v -0.46866 a 0.25009099,0.25009099 45 0 0 -0.250091,-0.25009 z"
         id="path159575"
         sodipodi:nodetypes="cssscc" />
      <path
         style="color:#000000;fill:#d0e2ee;stroke-width:0.795824;stroke-linecap:round;stroke-linejoin:round;stroke-miterlimit:1.5;-inkscape-stroke:none"
         d="m -53.085937,380.45117 a 0.26460996,0.26460996 0 0 0 -0.263672,0.26367 v 0.45508 c 0,0.54053 0.459887,0.97266 1.005859,0.97266 0.545973,0 1.005859,-0.43213 1.005859,-0.97266 v -0.45508 a 0.26460996,0.26460996 0 0 0 -0.265625,-0.26367 z"
         id="path159581" />
      <path
         style="color:#000000;fill:#dc1c4b;stroke-width:0.795824;stroke-linecap:round;stroke-linejoin:round;stroke-miterlimit:1.5;-inkscape-stroke:none"
         d="m -51.867187,380.45117 v 0.71875 c 0,0.54053 0.457934,0.97266 1.003906,0.97266 0.545973,0 1.005859,-0.43213 1.005859,-0.97266 v -0.71875 z"
         id="path159587"
         sodipodi:nodetypes="cssscc" />
      <path
         id="path829372"
         style="color:#000000;fill:#5aabdd;fill-opacity:1;stroke-width:0.795824;stroke-linecap:round;stroke-linejoin:round;stroke-miterlimit:1.5;-inkscape-stroke:none"
         d="m -56.233263,381.79689 c -0.391673,0.009 -0.750326,0.24357 -0.856276,0.59117 0.10936,-0.0402 0.228002,-0.062 0.349332,-0.062 h 0.324527 c 0.476235,2e-5 0.910022,0.33546 0.910022,0.80461 v 0.81287 h 0.265617 a 0.26460996,0.26460996 0 0 0 0.263549,-0.26562 v -1.07642 c 0,-0.46915 -0.433787,-0.80459 -0.910021,-0.8046 h -0.324527 c -0.0074,0 -0.01479,-1.7e-4 -0.02223,0 z" />
      <path
         id="path835457"
         style="color:#000000;fill:#5aabdd;fill-opacity:1;stroke-width:0.795824;stroke-linecap:round;stroke-linejoin:round;stroke-miterlimit:1.5;-inkscape-stroke:none"
         d="m -56.82599,384.52127 a 0.26460996,0.26460996 0 0 0 -0.265618,0.26407 v 0.26509 h 1.351338 a 0.26460996,0.26460996 0 0 1 0.265618,0.26407 v 0.81442 h 0.263549 a 0.26460996,0.26460996 0 0 0 0.265618,-0.26561 v -1.07797 a 0.26460996,0.26460996 0 0 0 -0.265618,-0.26407 z" />
      <path
         id="path894654"
         style="color:#000000;fill:#a8c2e1;fill-opacity:1;stroke-width:3.00784;stroke-linecap:round;stroke-linejoin:round;stroke-miterlimit:1.5;-inkscape-stroke:none"
         d="m -194.10742,370.22266 v 2 h 2.6518 a 2.8481997,2.8481997 45 0 1 2.8482,2.8482 v 0.58539 c 0,0.48688 -0.0985,0.95003 -0.27539,1.375 1.32877,-0.56341 2.27539,-1.86024 2.27539,-3.375 v -1.43359 h 0.6518 a 2.8481997,2.8481997 45 0 1 2.8482,2.8482 v 0.58539 c 0,0.48688 -0.0985,0.95003 -0.27539,1.375 1.32877,-0.56341 2.27539,-1.86024 2.27539,-3.375 v -3.43359 z"
         transform="matrix(0.26458334,0,0,0.26458334,0,280.06666)"
         sodipodi:nodetypes="cccscsccscscc" />
      <path
         id="path859574"
         style="color:#000000;fill:#a8c2e1;fill-opacity:1;stroke-width:0.795824;stroke-linecap:round;stroke-linejoin:round;stroke-miterlimit:1.5;-inkscape-stroke:none"
         d="m -47.917993,378.48805 v -0.46666 c 5.29e-4,-0.021 -0.0013,-0.042 -0.0057,-0.0625 l -0.697629,-2.89647 -2.971913,-10e-6 0.04237,0.52917 h 2.400372 l 0.697629,2.89647 z"
         sodipodi:nodetypes="ccccccccc" />
      <path
         id="path862861"
         style="color:#000000;fill:#a8c2e1;fill-opacity:1;stroke-width:0.795824;stroke-linecap:round;stroke-linejoin:round;stroke-miterlimit:1.5;-inkscape-stroke:none"
         d="m -53.736253,378.56039 v -0.52916 l 0.237712,-2.96882 h -2.973982 l -0.127124,0.52917 h 2.571935 l -0.237712,2.96881 z"
         sodipodi:nodetypes="cccccccc" />
      <path
         id="path890095"
         style="color:#000000;fill:#a8c2e1;fill-opacity:1;stroke-width:3.00784;stroke-linecap:round;stroke-linejoin:round;stroke-miterlimit:1.5;-inkscape-stroke:none"
         d="m -216.09766,370.22266 v 2 h 2.44734 a 3.0526614,3.0526614 45 0 1 3.05266,3.05266 v 0.38093 c 0,0.48688 -0.0985,0.95003 -0.27539,1.375 1.32877,-0.56341 2.27539,-1.86024 2.27539,-3.375 v -1.43359 h 0.44734 a 3.0526614,3.0526614 45 0 1 3.05266,3.05266 v 0.38093 c 0,0.48688 -0.0985,0.95003 -0.27539,1.375 1.32877,-0.56341 2.27539,-1.86024 2.27539,-3.375 v -3.43359 z"
         transform="matrix(0.26458334,0,0,0.26458334,0,280.06666)"
         sodipodi:nodetypes="cccscsccscscc" />
      <path
         id="path929433"
         style="color:#000000;fill:#143441;fill-opacity:1;stroke-width:0.795824;stroke-linecap:round;stroke-linejoin:round;stroke-miterlimit:1.5;-inkscape-stroke:none"
         d="m -59.281138,386.64672 a 0.26460996,0.26460996 0 0 0 -0.185518,0.078 l -0.538985,0.53485 a 0.26460996,0.26460996 0 0 0 -0.01344,0.0176 l 0.02326,-0.0233 a 0.26460996,0.26460996 0 0 1 0.185517,-0.078 h 13.470497 a 0.26460996,0.26460996 0 0 1 0.185517,0.078 l 0.538986,0.53899 a 0.26460996,0.26460996 0 0 1 0.07855,0.18758 v 0.27337 h 0.263549 a 0.26460996,0.26460996 0 0 0 0.265618,-0.26561 v -0.53692 a 0.26460996,0.26460996 0 0 0 -0.07855,-0.18759 l -0.538986,-0.53898 a 0.26460996,0.26460996 0 0 0 -0.185518,-0.078 z" />
    </g>
  </g>
</svg>
