<?xml version="1.0" encoding="UTF-8" standalone="no"?>
<svg width="24px" height="12px" viewBox="0 0 24 12" version="1.1" xmlns="http://www.w3.org/2000/svg" xmlns:xlink="http://www.w3.org/1999/xlink">
    <!-- Generator: Sketch 44.1 (41455) - http://www.bohemiancoding.com/sketch -->
    <title>Menu</title>
    <desc>Created with Sketch.</desc>
    <defs></defs>
    <g id="Page-2-Copy" stroke="none" stroke-width="1" fill="none" fill-rule="evenodd">
        <g id="95" stroke="#979797" transform="translate(-4.000000, -10.000000)" fill="#2A2630">
            <path d="M5.00069463,10 C4.44802625,10 4,10.4438648 4,11 L4,11 C4,11.5522847 4.44746922,12 5.00069463,12 L26.9993054,12 C27.5519738,12 28,11.5561352 28,11 L28,11 C28,10.4477153 27.5525308,10 26.9993054,10 L5.00069463,10 L5.00069463,10 Z M5.00069463,15 C4.44802625,15 4,15.4438648 4,16 L4,16 C4,16.5522847 4.44746922,17 5.00069463,17 L26.9993054,17 C27.5519738,17 28,16.5561352 28,16 L28,16 C28,15.4477153 27.5525308,15 26.9993054,15 L5.00069463,15 L5.00069463,15 Z M5.00069463,20 C4.44802625,20 4,20.4438648 4,21 L4,21 C4,21.5522847 4.44746922,22 5.00069463,22 L26.9993054,22 C27.5519738,22 28,21.5561352 28,21 L28,21 C28,20.4477153 27.5525308,20 26.9993054,20 L5.00069463,20 L5.00069463,20 Z" id="Rectangle-564" stroke="none"></path>
        </g>
    </g>
</svg>