<?xml version="1.0" encoding="iso-8859-1"?>
<!-- Generator: Adobe Illustrator 19.0.0, SVG Export Plug-In . SVG Version: 6.00 Build 0)  -->
<svg version="1.1" id="Layer_1" xmlns="http://www.w3.org/2000/svg" xmlns:xlink="http://www.w3.org/1999/xlink" x="0px" y="0px"
	 viewBox="0 0 485 485" style="enable-background:new 0 0 485 485;" xml:space="preserve">
<g>
	<g>
		<polygon style="fill:#31C0D8;" points="477.5,42.5 477.5,212.5 387.5,167.5 292.7,217.4 177.5,167.5 7.5,252.5 7.5,42.5 		"/>
		<polygon style="fill:#3A9D51;" points="477.5,212.5 477.5,297.5 292.7,217.4 387.5,167.5 		"/>
		<polygon style="fill:#43B05C;" points="292.7,217.4 477.5,297.5 477.5,342.5 7.5,342.5 7.5,252.5 177.5,167.5 		"/>
		<rect x="7.5" y="342.5" style="fill:#E7ECED;" width="470" height="100"/>
	</g>
	<g id="XMLID_85_">
		<g>
			<path style="fill:#FFD248;" d="M285,82.5c20.7,0,37.5,16.8,37.5,37.5s-16.8,37.5-37.5,37.5s-37.5-16.8-37.5-37.5
				S264.3,82.5,285,82.5z"/>
		</g>
		<g>
			<path style="fill:#231F20;" d="M0,35v415h485V35H0z M470,50v150.365l-82.588-41.294l-95.048,50.03l-115.091-49.873L15,240.365V50
				H470z M15,257.135l162.727-81.364l111.991,48.51L470,302.423V335H15V257.135z M310.021,216.752l77.567-40.823L470,217.135v68.941
				L310.021,216.752z M15,435v-85h455v85H15z"/>
			<rect x="377" y="370.75" style="fill:#231F20;" width="70" height="15"/>
			<rect x="417" y="400.75" style="fill:#231F20;" width="30" height="15"/>
			<path style="fill:#231F20;" d="M285,165c24.813,0,45-20.187,45-45s-20.187-45-45-45s-45,20.187-45,45S260.187,165,285,165z
				 M285,90c16.542,0,30,13.458,30,30s-13.458,30-30,30s-30-13.458-30-30S268.458,90,285,90z"/>
		</g>
	</g>
</g>
<g>
</g>
<g>
</g>
<g>
</g>
<g>
</g>
<g>
</g>
<g>
</g>
<g>
</g>
<g>
</g>
<g>
</g>
<g>
</g>
<g>
</g>
<g>
</g>
<g>
</g>
<g>
</g>
<g>
</g>
</svg>
